# Blender v2.93.6 OBJ File: ''
# www.blender.org
mtllib sample cube.mtl
o Cube
v -1.000000 -1.000000 -1.000000
v 1.000000 -1.000000 -1.000000
v -1.000000 1.000000 -1.000000
v 1.000000 1.000000 -1.000000
v -1.000000 -1.000000 1.000000
v 1.000000 -1.000000 1.000000
v -1.000000 1.000000 1.000000
v 1.000000 1.000000 1.000000
vt 0.625000 0.500000
vt 0.875000 0.500000
vt 0.875000 0.750000
vt 0.625000 0.750000
vt 0.995233 1.001652
vt -0.005154 1.001652
vt -0.005154 0.897167
vt 0.995233 0.897167
vt -0.002020 0.896826
vt 1.002020 0.896826
vt 1.002020 0.999650
vt -0.002020 0.999650
vt 0.125000 0.500000
vt 0.375000 0.500000
vt 0.375000 0.750000
vt 0.125000 0.750000
vt 0.002584 0.900444
vt 1.000684 0.900444
vt 1.000684 1.000472
vt 0.002584 1.000472
vt -0.001350 0.897692
vt 1.000803 0.897692
vt 1.000803 1.002041
vt -0.001350 1.002041
vn -1.0000 0.0000 0.0000
vn -0.0000 1.0000 -0.0000
vn 0.0000 0.0000 1.0000
vn 1.0000 0.0000 -0.0000
vn -0.0000 -0.0000 -1.0000
vn 0.0000 -1.0000 0.0000
g Cube_Cube_Material
usemtl Material
s off
f 1/1/1 5/2/1 7/3/1 3/4/1
f 4/5/2 3/6/2 7/7/2 8/8/2
f 8/9/3 7/10/3 5/11/3 6/12/3
f 6/13/4 2/14/4 4/15/4 8/16/4
f 2/17/5 1/18/5 3/19/5 4/20/5
f 6/21/6 5/22/6 1/23/6 2/24/6
